<svg width="171" height="232" viewBox="0 0 171 232" fill="none" xmlns="http://www.w3.org/2000/svg">
<g clip-path="url(#clip0_2170_1901)">
<mask id="mask0_2170_1901" style="mask-type:luminance" maskUnits="userSpaceOnUse" x="0" y="0" width="171" height="232">
<path d="M171 0H0V232H171V0Z" fill="white"/>
</mask>
<g mask="url(#mask0_2170_1901)">
<path fill-rule="evenodd" clip-rule="evenodd" d="M77.7071 184.794C78.4751 184.031 78.9751 183.031 79.2071 181.794C80.0341 168.288 79.8671 154.954 78.7071 141.794C78.0051 134.893 75.0051 129.059 69.7071 124.294C61.9441 120.425 54.9441 115.592 48.7071 109.794C46.9591 108.505 46.6261 107.005 47.7071 105.294C45.9321 103.855 43.9321 102.855 41.7071 102.294C41.3511 97.788 39.0181 94.955 34.7071 93.794C32.4501 89.689 30.7831 85.355 29.7071 80.794C29.5641 79.032 29.8981 77.365 30.7071 75.794C28.0161 66.698 27.0161 57.365 27.7071 47.794C30.2251 32.059 35.0581 17.059 42.2071 2.794C43.6981 1.29 45.5311 0.457 47.7071 0.294C72.9551 -0.098 98.2881 -0.098 123.707 0.294C126.439 0.692 128.272 2.192 129.207 4.794C140.042 25.133 144.708 46.8 143.207 69.794C141.025 88.295 132.525 103.129 117.707 114.294C111.289 118.253 104.789 122.087 98.2071 125.794C94.6591 129.763 92.6591 134.429 92.2071 139.794C91.5401 154.794 91.5401 169.794 92.2071 184.794C94.8391 194.088 101.005 198.921 110.707 199.294C101.389 202.942 91.7221 205.442 81.7071 206.794C72.8981 205.592 64.2321 203.758 55.7071 201.294C54.3741 200.627 54.3741 199.961 55.7071 199.294C63.2551 199.292 69.7551 196.792 75.2071 191.794C76.0541 189.44 76.8871 187.106 77.7071 184.794ZM50.7071 13.794C73.7821 13.472 96.7821 13.805 119.707 14.794C124.608 26.395 128.275 38.395 130.707 50.794C130.881 57.829 130.548 64.829 129.707 71.794C121.956 101.377 102.956 113.877 72.7071 109.294C55.7891 103.646 45.1221 92.146 40.7071 74.794C39.8241 65.827 39.4911 56.827 39.7071 47.794C42.2241 36.093 45.8901 24.76 50.7071 13.794Z" fill="white" stroke="white"/>
<path fill-rule="evenodd" clip-rule="evenodd" d="M50.707 13.7939C62.035 13.1269 73.535 12.7939 85.207 12.7939C97.06 12.7949 108.56 13.4619 119.707 14.7939C96.782 13.8049 73.782 13.4719 50.707 13.7939Z" fill="white" stroke="white"/>
<path fill-rule="evenodd" clip-rule="evenodd" d="M103.707 34.7939C100.822 34.4879 98.155 34.8209 95.707 35.7939C92.758 36.9079 90.592 38.9079 89.207 41.7939C87.868 48.7199 87.368 55.7199 87.707 62.7939C86.063 63.0079 84.563 62.6739 83.207 61.7939C84.73 53.7749 83.73 46.1079 80.207 38.7939C78.026 35.7659 75.193 33.7659 71.707 32.7939C67.514 32.0109 63.18 31.3449 58.707 30.7939C56.396 28.1469 54.063 25.4799 51.707 22.7939C58.151 20.8959 64.484 19.5629 70.707 18.7939C75.933 20.0309 79.599 23.0309 81.707 27.7939C81.035 31.4699 82.368 34.4699 85.707 36.7939C87.27 35.3489 88.603 33.6829 89.707 31.7939C88.322 30.7429 87.322 29.4099 86.707 27.7939C86.985 25.2269 87.151 22.5609 87.207 19.7939C87.768 19.2719 88.435 18.9389 89.207 18.7939C91.571 19.8059 92.905 21.1389 93.207 22.7939C101.754 20.2499 110.254 20.5829 118.707 23.7939C115.033 29.4949 110.033 33.1619 103.707 34.7939Z" fill="white" stroke="white"/>
<path fill-rule="evenodd" clip-rule="evenodd" d="M58.707 30.7939C63.18 31.3449 67.514 32.0109 71.707 32.7939C67.693 32.9599 63.693 32.7929 59.707 32.2939C59.151 31.9109 58.818 31.4109 58.707 30.7939Z" fill="white" stroke="white"/>
<path fill-rule="evenodd" clip-rule="evenodd" d="M60.707 34.794C65.174 34.427 69.507 34.927 73.707 36.294C77.761 42.353 75.928 45.853 68.207 46.794C62.736 45.976 57.236 45.642 51.707 45.794C52.905 40.601 55.905 36.935 60.707 34.794Z" fill="white" stroke="white"/>
<path fill-rule="evenodd" clip-rule="evenodd" d="M95.707 35.794C98.155 34.821 100.822 34.488 103.707 34.794C106.04 35.461 108.374 36.127 110.707 36.794C107.707 36.794 104.707 36.794 101.707 36.794C99.942 35.833 97.942 35.499 95.707 35.794Z" fill="white" stroke="white"/>
<path fill-rule="evenodd" clip-rule="evenodd" d="M101.707 36.7939C104.707 36.7939 107.707 36.7939 110.707 36.7939C115.154 38.0739 118.154 40.9069 119.707 45.2939C118.493 46.8629 116.826 47.6959 114.707 47.7939C108.998 47.2909 103.332 46.6249 97.7071 45.7939C94.7221 43.2599 94.389 40.5929 96.707 37.7939C98.252 36.8419 99.919 36.5089 101.707 36.7939Z" fill="white" stroke="white"/>
<path fill-rule="evenodd" clip-rule="evenodd" d="M79.707 56.7939C79.707 57.7939 79.707 58.7939 79.707 59.7939C78.201 66.3399 74.201 68.5069 67.707 66.2939C60.506 58.8379 61.839 53.3379 71.707 49.7939C76.307 50.0679 78.974 52.4009 79.707 56.7939Z" fill="white" stroke="white"/>
<path fill-rule="evenodd" clip-rule="evenodd" d="M90.7071 62.7939C90.0141 58.5409 91.0141 54.8749 93.7071 51.7939C97.2951 49.3329 100.962 49.4989 104.707 52.2939C108.706 60.1229 106.539 65.2899 98.2071 67.7939C94.7431 67.4849 92.2431 65.8179 90.7071 62.7939Z" fill="white" stroke="white"/>
<path fill-rule="evenodd" clip-rule="evenodd" d="M39.707 47.7939C39.491 56.8269 39.824 65.8269 40.707 74.7939C39.939 74.0309 39.439 73.0309 39.207 71.7939C38.384 63.6169 38.551 55.6169 39.707 47.7939Z" fill="white" stroke="white"/>
<path fill-rule="evenodd" clip-rule="evenodd" d="M79.707 56.7939C82.374 57.7939 82.374 58.7939 79.707 59.7939C79.707 58.7939 79.707 57.7939 79.707 56.7939Z" fill="white" stroke="white"/>
<path fill-rule="evenodd" clip-rule="evenodd" d="M93.707 51.7939C91.014 54.8749 90.014 58.5409 90.707 62.7939C89.682 61.9199 89.015 60.7529 88.707 59.2939C89.285 57.4829 89.785 55.6489 90.207 53.7939C91.023 52.4709 92.19 51.8049 93.707 51.7939Z" fill="white" stroke="white"/>
<path fill-rule="evenodd" clip-rule="evenodd" d="M130.707 50.7939C131.86 56.9469 132.027 63.2799 131.207 69.7939C130.929 70.7099 130.429 71.3759 129.707 71.7939C130.548 64.8289 130.881 57.8289 130.707 50.7939Z" fill="white" stroke="white"/>
<path fill-rule="evenodd" clip-rule="evenodd" d="M79.7071 65.7941C88.6921 65.2731 91.8591 69.2731 89.2071 77.7941C85.5021 82.2761 81.1691 82.9431 76.2071 79.7941C73.6431 74.0461 74.8101 69.3791 79.7071 65.7941Z" fill="white" stroke="white"/>
<path fill-rule="evenodd" clip-rule="evenodd" d="M27.7071 47.7939C27.0161 57.3649 28.0161 66.6979 30.7071 75.7939C29.8981 77.3649 29.5641 79.0319 29.7071 80.7939C28.5861 78.3399 27.7531 75.6729 27.2071 72.7939C26.3841 64.2839 26.5501 55.9499 27.7071 47.7939Z" fill="white" stroke="white"/>
<path fill-rule="evenodd" clip-rule="evenodd" d="M96.707 69.794C105.36 69.281 108.86 73.281 107.207 81.794C101.619 88.428 96.119 88.428 90.707 81.794C92.583 77.662 94.583 73.662 96.707 69.794Z" fill="white" stroke="white"/>
<path fill-rule="evenodd" clip-rule="evenodd" d="M67.707 70.7939C69.957 70.4749 71.957 70.9749 73.707 72.2939C71.703 75.1349 71.203 78.3009 72.207 81.7939C77.058 84.2409 76.725 85.9079 71.207 86.7939C61.343 83.2669 60.177 77.9339 67.707 70.7939Z" fill="white" stroke="white"/>
<path fill-rule="evenodd" clip-rule="evenodd" d="M81.7071 83.7941C89.3611 82.2821 94.0271 85.2821 95.7071 92.7941C94.0281 100.469 89.3611 103.303 81.7071 101.294C75.0491 95.2911 75.0491 89.4581 81.7071 83.7941Z" fill="white" stroke="white"/>
<path fill-rule="evenodd" clip-rule="evenodd" d="M34.707 93.7939C39.018 94.9549 41.351 97.7879 41.707 102.294C43.932 102.855 45.932 103.855 47.707 105.294C46.626 107.005 46.959 108.505 48.707 109.794C42.287 106.038 37.62 100.705 34.707 93.7939Z" fill="white"/>
<path fill-rule="evenodd" clip-rule="evenodd" d="M78.707 141.794C79.867 154.954 80.034 168.288 79.207 181.794C78.975 183.031 78.475 184.031 77.707 184.794C78.638 170.49 78.971 156.157 78.707 141.794Z" fill="white" stroke="white"/>
<path fill-rule="evenodd" clip-rule="evenodd" d="M4.70703 195.794C28.687 193.955 50.687 199.622 70.707 212.794C70.498 213.38 70.164 213.88 69.707 214.294C66.047 214.841 62.38 215.341 58.707 215.794C48.354 213.399 38.021 210.899 27.707 208.294C19.707 207.961 11.707 207.627 3.70703 207.294C-1.54897 203.16 -1.21597 199.327 4.70703 195.794Z" fill="white" stroke="white"/>
<path fill-rule="evenodd" clip-rule="evenodd" d="M141.707 195.794C149.714 195.628 157.714 195.794 165.707 196.294C170.849 199.336 171.516 203.002 167.707 207.294C155.326 207.399 142.993 208.066 130.707 209.294C114.079 213.608 98.079 219.608 82.707 227.294C64.072 233.266 45.738 233.266 27.707 227.294C22.838 225.877 19.171 223.043 16.707 218.794C16.909 214.923 18.909 213.257 22.707 213.794C30.526 216.582 38.526 218.749 46.707 220.294C54.422 221.056 62.088 220.723 69.707 219.294C86.307 212.761 102.973 206.428 119.707 200.294C127.05 198.241 134.383 196.741 141.707 195.794Z" fill="white" stroke="white"/>
<path fill-rule="evenodd" clip-rule="evenodd" d="M145.707 212.794C151.808 213.351 153.975 216.351 152.207 221.794C140.24 228.843 127.407 231.01 113.707 228.294C104.374 225.961 104.374 223.627 113.707 221.294C124.727 219.265 135.394 216.432 145.707 212.794Z" fill="white" stroke="white"/>
</g>
</g>
<defs>
<clipPath id="clip0_2170_1901">
<rect width="171" height="232" fill="white"/>
</clipPath>
</defs>
</svg>
