<?xml version="1.0" encoding="UTF-8"?>
<!DOCTYPE svg PUBLIC "-//W3C//DTD SVG 1.1//EN" "http://www.w3.org/Graphics/SVG/1.1/DTD/svg11.dtd">
<svg xmlns="http://www.w3.org/2000/svg" version="1.1" width="500px" height="500px" style="shape-rendering:geometricPrecision; text-rendering:geometricPrecision; image-rendering:optimizeQuality; fill-rule:evenodd; clip-rule:evenodd" xmlns:xlink="http://www.w3.org/1999/xlink">
<g><path style="opacity:0.999" fill="#f6f8f8" d="M 240.5,320.5 C 241.268,319.737 241.768,318.737 242,317.5C 242.827,303.994 242.66,290.66 241.5,277.5C 240.798,270.599 237.798,264.765 232.5,260C 224.737,256.131 217.737,251.298 211.5,245.5C 209.752,244.211 209.419,242.711 210.5,241C 208.725,239.561 206.725,238.561 204.5,238C 204.144,233.494 201.811,230.661 197.5,229.5C 195.243,225.395 193.576,221.061 192.5,216.5C 192.357,214.738 192.691,213.071 193.5,211.5C 190.809,202.404 189.809,193.071 190.5,183.5C 193.018,167.765 197.851,152.765 205,138.5C 206.491,136.996 208.324,136.163 210.5,136C 235.748,135.608 261.081,135.608 286.5,136C 289.232,136.398 291.065,137.898 292,140.5C 302.835,160.839 307.501,182.506 306,205.5C 303.818,224.001 295.318,238.835 280.5,250C 274.082,253.959 267.582,257.793 261,261.5C 257.452,265.469 255.452,270.135 255,275.5C 254.333,290.5 254.333,305.5 255,320.5C 257.632,329.794 263.798,334.627 273.5,335C 264.182,338.648 254.515,341.148 244.5,342.5C 235.691,341.298 227.025,339.464 218.5,337C 217.167,336.333 217.167,335.667 218.5,335C 226.048,334.998 232.548,332.498 238,327.5C 238.847,325.146 239.68,322.812 240.5,320.5 Z M 213.5,149.5 C 236.575,149.178 259.575,149.511 282.5,150.5C 287.401,162.101 291.068,174.101 293.5,186.5C 293.674,193.535 293.341,200.535 292.5,207.5C 284.749,237.083 265.749,249.583 235.5,245C 218.582,239.352 207.915,227.852 203.5,210.5C 202.617,201.533 202.284,192.533 202.5,183.5C 205.017,171.799 208.683,160.466 213.5,149.5 Z"/></g>
<g><path style="opacity:0.208" fill="#acb4ba" d="M 213.5,149.5 C 224.828,148.833 236.328,148.5 248,148.5C 259.853,148.501 271.353,149.168 282.5,150.5C 259.575,149.511 236.575,149.178 213.5,149.5 Z"/></g>
<g><path style="opacity:0.999" fill="#ebeff0" d="M 266.5,170.5 C 263.615,170.194 260.948,170.527 258.5,171.5C 255.551,172.614 253.385,174.614 252,177.5C 250.661,184.426 250.161,191.426 250.5,198.5C 248.856,198.714 247.356,198.38 246,197.5C 247.523,189.481 246.523,181.814 243,174.5C 240.819,171.472 237.986,169.472 234.5,168.5C 230.307,167.717 225.973,167.051 221.5,166.5C 219.189,163.853 216.856,161.186 214.5,158.5C 220.944,156.602 227.277,155.269 233.5,154.5C 238.726,155.737 242.392,158.737 244.5,163.5C 243.828,167.176 245.161,170.176 248.5,172.5C 250.063,171.055 251.396,169.389 252.5,167.5C 251.115,166.449 250.115,165.116 249.5,163.5C 249.778,160.933 249.944,158.267 250,155.5C 250.561,154.978 251.228,154.645 252,154.5C 254.364,155.512 255.698,156.845 256,158.5C 264.547,155.956 273.047,156.289 281.5,159.5C 277.826,165.201 272.826,168.868 266.5,170.5 Z"/></g>
<g><path style="opacity:0.255" fill="#7d868b" d="M 221.5,166.5 C 225.973,167.051 230.307,167.717 234.5,168.5C 230.486,168.666 226.486,168.499 222.5,168C 221.944,167.617 221.611,167.117 221.5,166.5 Z"/></g>
<g><path style="opacity:1" fill="#eaeef0" d="M 223.5,170.5 C 227.967,170.133 232.3,170.633 236.5,172C 240.554,178.059 238.721,181.559 231,182.5C 225.529,181.682 220.029,181.348 214.5,181.5C 215.698,176.307 218.698,172.641 223.5,170.5 Z"/></g>
<g><path style="opacity:0.176" fill="#90949d" d="M 258.5,171.5 C 260.948,170.527 263.615,170.194 266.5,170.5C 268.833,171.167 271.167,171.833 273.5,172.5C 270.5,172.5 267.5,172.5 264.5,172.5C 262.735,171.539 260.735,171.205 258.5,171.5 Z"/></g>
<g><path style="opacity:0.999" fill="#f1f4f5" d="M 264.5,172.5 C 267.5,172.5 270.5,172.5 273.5,172.5C 277.947,173.78 280.947,176.613 282.5,181C 281.286,182.569 279.619,183.402 277.5,183.5C 271.791,182.997 266.125,182.331 260.5,181.5C 257.515,178.966 257.182,176.299 259.5,173.5C 261.045,172.548 262.712,172.215 264.5,172.5 Z"/></g>
<g><path style="opacity:1" fill="#ecf0f1" d="M 242.5,192.5 C 242.5,193.5 242.5,194.5 242.5,195.5C 240.994,202.046 236.994,204.213 230.5,202C 223.299,194.544 224.632,189.044 234.5,185.5C 239.1,185.774 241.767,188.107 242.5,192.5 Z"/></g>
<g><path style="opacity:0.999" fill="#f2f5f6" d="M 253.5,198.5 C 252.807,194.247 253.807,190.581 256.5,187.5C 260.088,185.039 263.755,185.205 267.5,188C 271.499,195.829 269.332,200.996 261,203.5C 257.536,203.191 255.036,201.524 253.5,198.5 Z"/></g>
<g><path style="opacity:0.067" fill="#c4cacc" d="M 202.5,183.5 C 202.284,192.533 202.617,201.533 203.5,210.5C 202.732,209.737 202.232,208.737 202,207.5C 201.177,199.323 201.344,191.323 202.5,183.5 Z"/></g>
<g><path style="opacity:0.122" fill="#3f4a4c" d="M 242.5,192.5 C 245.167,193.5 245.167,194.5 242.5,195.5C 242.5,194.5 242.5,193.5 242.5,192.5 Z"/></g>
<g><path style="opacity:0.918" fill="#a5adb2" d="M 256.5,187.5 C 253.807,190.581 252.807,194.247 253.5,198.5C 252.475,197.626 251.808,196.459 251.5,195C 252.078,193.189 252.578,191.355 253,189.5C 253.816,188.177 254.983,187.511 256.5,187.5 Z"/></g>
<g><path style="opacity:0.057" fill="#aab0b3" d="M 293.5,186.5 C 294.653,192.653 294.82,198.986 294,205.5C 293.722,206.416 293.222,207.082 292.5,207.5C 293.341,200.535 293.674,193.535 293.5,186.5 Z"/></g>
<g><path style="opacity:1" fill="#ebeff0" d="M 242.5,201.5 C 251.485,200.979 254.652,204.979 252,213.5C 248.295,217.982 243.962,218.649 239,215.5C 236.436,209.752 237.603,205.085 242.5,201.5 Z"/></g>
<g><path style="opacity:0.996" fill="#bfc6cc" d="M 190.5,183.5 C 189.809,193.071 190.809,202.404 193.5,211.5C 192.691,213.071 192.357,214.738 192.5,216.5C 191.379,214.046 190.546,211.379 190,208.5C 189.177,199.99 189.343,191.656 190.5,183.5 Z"/></g>
<g><path style="opacity:0.997" fill="#f0f4f4" d="M 259.5,205.5 C 268.153,204.987 271.653,208.987 270,217.5C 264.412,224.134 258.912,224.134 253.5,217.5C 255.376,213.368 257.376,209.368 259.5,205.5 Z"/></g>
<g><path style="opacity:0.993" fill="#d4dade" d="M 230.5,206.5 C 232.75,206.181 234.75,206.681 236.5,208C 234.496,210.841 233.996,214.007 235,217.5C 239.851,219.947 239.518,221.614 234,222.5C 224.136,218.973 222.97,213.64 230.5,206.5 Z"/></g>
<g><path style="opacity:1" fill="#eff2f4" d="M 244.5,219.5 C 252.154,217.988 256.82,220.988 258.5,228.5C 256.821,236.175 252.154,239.009 244.5,237C 237.842,230.997 237.842,225.164 244.5,219.5 Z"/></g>
<g><path style="opacity:1" fill="#bcc5c9" d="M 197.5,229.5 C 201.811,230.661 204.144,233.494 204.5,238C 206.725,238.561 208.725,239.561 210.5,241C 209.419,242.711 209.752,244.211 211.5,245.5C 205.08,241.744 200.413,236.411 197.5,229.5 Z"/></g>
<g><path style="opacity:0.624" fill="#b7c1c7" d="M 241.5,277.5 C 242.66,290.66 242.827,303.994 242,317.5C 241.768,318.737 241.268,319.737 240.5,320.5C 241.431,306.196 241.764,291.863 241.5,277.5 Z"/></g>
<g><path style="opacity:1" fill="#eceff1" d="M 167.5,331.5 C 191.48,329.661 213.48,335.328 233.5,348.5C 233.291,349.086 232.957,349.586 232.5,350C 228.84,350.547 225.173,351.047 221.5,351.5C 211.147,349.105 200.814,346.605 190.5,344C 182.5,343.667 174.5,343.333 166.5,343C 161.244,338.866 161.577,335.033 167.5,331.5 Z"/></g>
<g><path style="opacity:1" fill="#edf0f1" d="M 304.5,331.5 C 312.507,331.334 320.507,331.5 328.5,332C 333.642,335.042 334.309,338.708 330.5,343C 318.119,343.105 305.786,343.772 293.5,345C 276.872,349.314 260.872,355.314 245.5,363C 226.865,368.972 208.531,368.972 190.5,363C 185.631,361.583 181.964,358.749 179.5,354.5C 179.702,350.629 181.702,348.963 185.5,349.5C 193.319,352.288 201.319,354.455 209.5,356C 217.215,356.762 224.881,356.429 232.5,355C 249.1,348.467 265.766,342.134 282.5,336C 289.843,333.947 297.176,332.447 304.5,331.5 Z"/></g>
<g><path style="opacity:1" fill="#eceff0" d="M 308.5,348.5 C 314.601,349.057 316.768,352.057 315,357.5C 303.033,364.549 290.2,366.716 276.5,364C 267.167,361.667 267.167,359.333 276.5,357C 287.52,354.971 298.187,352.138 308.5,348.5 Z"/></g>
</svg>
